<?xml version="1.0" encoding="utf-8"?>
<!-- Generator: Adobe Illustrator 25.2.1, SVG Export Plug-In . SVG Version: 6.00 Build 0)  -->
<svg version="1.1" xmlns="http://www.w3.org/2000/svg" xmlns:xlink="http://www.w3.org/1999/xlink" x="0px" y="0px"
	 viewBox="0 0 523.6 506" style="enable-background:new 0 0 523.6 506;" xml:space="preserve">
<style type="text/css">
	.st0{display:none;}
	.st1{display:inline;fill:none;stroke:#000000;stroke-miterlimit:10;}
	.st2{display:inline;}
	.st3{fill:none;stroke:#000000;stroke-miterlimit:10;}
</style>
<g id="Слой_2_1_" class="st0">
	<polygon class="st1" points="343.3,11.6 95.7,259.1 338.7,502.1 	"/>
	<polygon class="st1" points="247.6,4.6 0,252.2 242.9,495.2 	"/>
	<circle class="st1" cx="343.3" cy="259.1" r="175.1"/>
</g>
<g id="Слой_3" class="st0">
	<g class="st2">
		<polygon class="st3" points="345,11 98,258 340.3,500.4 		"/>
		<polygon class="st3" points="249.4,4.1 2.5,251.1 244.8,493.5 		"/>
	</g>
	<circle class="st1" cx="240.6" cy="258" r="100.8"/>
</g>
<g id="Слой_4" class="st0">
	<g class="st2">
		<polygon class="st3" points="327.5,31.8 94.6,264.7 323.2,493.2 		"/>
		<polygon class="st3" points="237.5,25.3 4.6,258.2 233.1,486.7 		"/>
	</g>
</g>
<g id="Слой_5" class="st0">
	<g class="st2">
		<path class="st3" d="M370.1,436.7c-107.2,0-194.2-87.5-194.2-195.4S262.9,45.8,370.1,45.8V436.7z"/>
		<path class="st3" d="M370.1,365.3c-107.2,0-194.1-56.4-194.1-125.9s86.9-125.9,194.1-125.9"/>
		<path class="st3" d="M250.1,5v477c0,0-74.2-67.4-74.2-240.8C175.9,71.1,250.1,5,250.1,5z"/>
	</g>
</g>
<g id="Слой_6" class="st0">
	<path class="st1" d="M338.7,412.2c-134.9,0-244.3-71-244.3-158.5S203.8,95.2,338.7,95.2V10c-135,0-244.4,110.1-244.4,246
		s109.4,246,244.4,246V412.2z"/>
</g>
<g id="Слой_7" class="st0">
	<path class="st1" d="M338.7,499c-135,0-244.4-110.1-244.4-246S203.7,7,338.7,7V499z"/>
</g>
<g id="Слой_8" class="st0">
	<g class="st2">
		<path class="st3" d="M338.7,499c-135,0-244.4-110.1-244.4-246S203.7,7,338.7,7V499z"/>
		<path class="st3" d="M338.7,409.2c-134.9,0-244.3-71-244.3-158.5S203.8,92.2,338.7,92.2"/>
	</g>
</g>
<g id="Слой_9" class="st0">
	<g class="st2">
		<polygon class="st3" points="345.7,21.4 105.8,261.3 341.2,496.7 		"/>
		<polygon class="st3" points="252.9,14.7 13,254.6 248.4,490 		"/>
		<path class="st3" d="M500.9,262.7C281.9,481.8,13,254.6,13,254.6S289.7,70.4,500.9,262.7"/>
	</g>
</g>
<g id="Слой_10" class="st0">
	<path class="st1" d="M340.8,479l1.3-135.7c49.5-10.3,100.3-35.4,148.5-83.7c-47-42.8-97.4-65.7-147-75.8L345,33.3l-87.9,87.9
		L258,27L33,252l220.8,220.8l0.8-79.9L340.8,479z"/>
</g>
<g id="Слой_11" class="st0">
	<path class="st1" d="M331.7,410.6c40.2,0.9,80.7-14,111.4-44.7c59.6-59.6,59.6-156.2,0-215.8c-30-30-69.3-44.8-108.5-44.7l0.6-63.2
		l-84.3,84.3l0.9-90.4L35.8,252l211.8,211.8l0.7-76.7l82.7,82.7L331.7,410.6z"/>
</g>
<g id="Слой_12" class="st0">
	<g class="st2">
		<path class="st3" d="M382.6,493c-132,0-238.9-107.7-238.9-240.5s107-240.5,238.9-240.5V493z"/>
		<path class="st3" d="M382.6,405.2c-131.9,0-238.8-69.4-238.8-154.9S250.7,95.4,382.6,95.4"/>
	</g>
	<ellipse class="st1" cx="263.2" cy="249.5" rx="119.4" ry="116.9"/>
</g>
<g id="Слой_13" class="st0">
	<path class="st1" d="M293.2,506C133.5,506,4,392.7,4,253S133.5,0,293.2,0"/>
	<g class="st2">
		<path class="st3" d="M197.1,419.7C90.5,419.7,4,345.1,4,253S90.5,86.3,197.1,86.3V419.7z"/>
		<path class="st3" d="M197.1,358.8c-106.6,0-193-48.1-193-107.4S90.5,144,197.1,144"/>
	</g>
	<ellipse class="st1" cx="100.6" cy="250.9" rx="96.5" ry="81"/>
</g>
<g id="Слой_14" class="st0">
	<path class="st1" d="M293.2,506C133.5,506,4,392.7,4,253S133.5,0,293.2,0"/>
	<path class="st1" d="M126.7,126c-31-0.7-62.2,10.8-85.8,34.4C-5,206.3-5,280.7,40.9,326.6c23.1,23.1,53.3,34.5,83.6,34.4l-0.5,48.7
		l64.9-64.9l-0.7,69.6l166.2-166.2L191.4,85l-0.6,59.1l-63.7-63.7L126.7,126z"/>
</g>
<g id="Слой_15">
	<path class="st3" d="M377.3,506C171.1,506,4,392.7,4,253S171.1,0,377.3,0"/>
	<g>
		<polygon class="st3" points="258.5,73.8 75,257.3 255.1,437.4 		"/>
		<polygon class="st3" points="187.5,68.6 4,252.1 184.1,432.2 		"/>
		<path class="st3" d="M377.3,258.4C209.7,426,4,252.1,4,252.1S215.7,111.2,377.3,258.4"/>
	</g>
</g>
<g id="Слой_16" class="st0">
	<path class="st1" d="M285.9,506C130.2,506,4,392.7,4,253S130.2,0,285.9,0"/>
	<g class="st2">
		<polygon class="st3" points="285.9,49.8 82.6,253.1 282.1,452.6 		"/>
		<polygon class="st3" points="207.3,44.1 4,247.4 203.5,446.9 		"/>
	</g>
	<circle class="st1" cx="200" cy="253.1" r="83"/>
</g>
</svg>
