<?xml version="1.0" encoding="utf-8"?>
<!-- Generator: Adobe Illustrator 25.2.1, SVG Export Plug-In . SVG Version: 6.00 Build 0)  -->
<svg version="1.1" xmlns="http://www.w3.org/2000/svg" xmlns:xlink="http://www.w3.org/1999/xlink" x="0px" y="0px"
	 viewBox="0 0 523.6 506" style="enable-background:new 0 0 523.6 506;" xml:space="preserve">
<style type="text/css">
	.st0{display:none;}
	.st1{display:inline;fill:none;stroke:#000000;stroke-miterlimit:10;}
	.st2{display:inline;}
	.st3{fill:none;stroke:#000000;stroke-miterlimit:10;}
</style>
<g id="Слой_2_1_" class="st0">
	<polygon class="st1" points="179.7,502.1 422.6,259.1 175.1,11.6 	"/>
	<polygon class="st1" points="275.4,495.2 518.4,252.2 270.8,4.6 	"/>
	<circle class="st1" cx="175.1" cy="259.1" r="175.1"/>
</g>
<g id="Слой_3" class="st0">
	<g class="st2">
		<polygon class="st3" points="2.5,11 249.4,258 7.1,500.4 		"/>
		<polygon class="st3" points="98,4.1 345,251.1 102.6,493.5 		"/>
	</g>
	<circle class="st1" cx="106.9" cy="258" r="100.8"/>
</g>
<g id="Слой_4" class="st0">
	<g class="st2">
		<polygon class="st3" points="4.6,31.8 237.5,264.7 8.9,493.2 		"/>
		<polygon class="st3" points="94.6,25.3 327.5,258.2 99,486.7 		"/>
	</g>
</g>
<g id="Слой_5">
	<g>
		<path class="st3" d="M175.9,436.7c107.2,0,194.2-87.5,194.2-195.4S283.2,45.8,175.9,45.8V436.7z"/>
		<path class="st3" d="M175.9,365.3c107.2,0,194.1-56.4,194.1-125.9s-86.9-125.9-194.1-125.9"/>
		<path class="st3" d="M296,5v477c0,0,74.2-67.4,74.2-240.8C370.1,71.1,296,5,296,5z"/>
	</g>
</g>
<g id="Слой_6" class="st0">
	<path class="st1" d="M94.3,412.2c134.9,0,244.3-71,244.3-158.5S229.2,95.2,94.3,95.2V10c135,0,244.4,110.1,244.4,246
		S229.3,502,94.3,502V412.2z"/>
</g>
<g id="Слой_7" class="st0">
	<path class="st1" d="M94.3,499c135,0,244.4-110.1,244.4-246S229.3,7,94.3,7V499z"/>
</g>
<g id="Слой_8" class="st0">
	<g class="st2">
		<path class="st3" d="M94.3,499c135,0,244.4-110.1,244.4-246S229.3,7,94.3,7V499z"/>
		<path class="st3" d="M94.3,409.2c134.9,0,244.3-71,244.3-158.5S229.2,92.2,94.3,92.2"/>
	</g>
</g>
<g id="Слой_9" class="st0">
	<g class="st2">
		<polygon class="st3" points="168.3,21.4 408.2,261.3 172.8,496.7 		"/>
		<polygon class="st3" points="261.1,14.7 500.9,254.6 265.5,490 		"/>
		<path class="st3" d="M13,262.7c219.1,219.1,487.9-8.1,487.9-8.1S224.3,70.4,13,262.7"/>
	</g>
</g>
<g id="Слой_10" class="st0">
	<path class="st1" d="M182.8,479l-1.3-135.7C132,333,81.2,307.8,33,259.6c47-42.8,97.4-65.7,147-75.8l-1.4-150.6l87.9,87.9L265.6,27
		l225,225L269.8,472.7l-0.8-79.9L182.8,479z"/>
</g>
<g id="Слой_11" class="st0">
	<path class="st1" d="M191.9,410.6c-40.2,0.9-80.7-14-111.4-44.7c-59.6-59.6-59.6-156.2,0-215.8c30-30,69.3-44.8,108.5-44.7
		l-0.6-63.2l84.3,84.3l-0.9-90.4L487.7,252L275.9,463.8l-0.7-76.7l-82.7,82.7L191.9,410.6z"/>
</g>
<g id="Слой_12" class="st0">
	<g class="st2">
		<path class="st3" d="M143.7,493c132,0,238.9-107.7,238.9-240.5S275.7,12.1,143.7,12.1V493z"/>
		<path class="st3" d="M143.7,405.2c131.9,0,238.8-69.4,238.8-154.9S275.6,95.4,143.7,95.4"/>
	</g>
	<ellipse class="st1" cx="263.1" cy="249.5" rx="119.4" ry="116.9"/>
</g>
<g id="Слой_13" class="st0">
	<path class="st1" d="M4,506c159.7,0,289.2-113.3,289.2-253S163.7,0,4,0"/>
	<g class="st2">
		<path class="st3" d="M100.1,419.7c106.6,0,193.1-74.6,193.1-166.7S206.8,86.3,100.1,86.3V419.7z"/>
		<path class="st3" d="M100.1,358.8c106.6,0,193-48.1,193-107.4S206.7,144,100.1,144"/>
	</g>
	<ellipse class="st1" cx="196.6" cy="250.9" rx="96.5" ry="81"/>
</g>
<g id="Слой_14" class="st0">
	<path class="st1" d="M65.3,506c159.7,0,289.2-113.3,289.2-253S225,0,65.3,0"/>
	<path class="st1" d="M231.8,126c31-0.7,62.2,10.8,85.8,34.4c45.9,45.9,45.9,120.3,0,166.2c-23.1,23.1-53.3,34.5-83.6,34.4l0.5,48.7
		l-64.9-64.9l0.7,69.6L4,248.2L167.1,85l0.6,59.1l63.7-63.7L231.8,126z"/>
</g>
<g id="Слой_15" class="st0">
	<path class="st1" d="M4,506c206.2,0,373.3-113.3,373.3-253S210.2,0,4,0"/>
	<g class="st2">
		<polygon class="st3" points="122.8,73.8 306.3,257.3 126.2,437.4 		"/>
		<polygon class="st3" points="193.8,68.6 377.3,252.1 197.2,432.2 		"/>
		<path class="st3" d="M4,258.4c167.6,167.6,373.3-6.2,373.3-6.2S165.6,111.2,4,258.4"/>
	</g>
</g>
<g id="Слой_16" class="st0">
	<path class="st1" d="M4,506c155.7,0,281.9-113.3,281.9-253S159.7,0,4,0"/>
	<g class="st2">
		<polygon class="st3" points="4,49.8 207.3,253.1 7.8,452.6 		"/>
		<polygon class="st3" points="82.6,44.1 285.9,247.4 86.4,446.9 		"/>
	</g>
	<circle class="st1" cx="89.9" cy="253.1" r="83"/>
</g>
</svg>
